Coordinates
nRows=5
nColumns=38

# SIMM Motion File Header:
name Coordinates
datacolumns 38
datarows 5
otherdata 1
range 2.24589999999999980000 2.24989999999999980000

Units are S.I. units (second, meters, Newtons, ...)
Angles are in degrees.

endheader
time	pelvis_tilt	pelvis_list	pelvis_rotation	pelvis_tx	pelvis_ty	pelvis_tz	hip_flexion_r	hip_adduction_r	hip_rotation_r	knee_angle_r	ankle_angle_r	subtalar_angle_r	mtp_angle_r	hip_flexion_l	hip_adduction_l	hip_rotation_l	knee_angle_l	ankle_angle_l	subtalar_angle_l	mtp_angle_l	lumbar_extension	lumbar_bending	lumbar_rotation	arm_flex_r	arm_add_r	arm_rot_r	elbow_flex_r	pro_sup_r	wrist_flex_r	wrist_dev_r	arm_flex_l	arm_add_l	arm_rot_l	elbow_flex_l	pro_sup_l	wrist_flex_l	wrist_dev_l
      2.24589999999999980000	     -4.93739321423388140000	      1.86705178738101820000	     -3.07971559549810920000	      0.90248069258786878000	      1.08353383056839370000	     -0.30088701651588817000	    -11.79755530255621600000	      2.53658552492772400000	     -0.03756437573973010100	    -40.92979156281479900000	     -2.82259740412130310000	      0.00000000000006560584	     -0.00000000000008552949	     31.43263703800484200000	      3.96130957329400910000	      2.80194760315147520000	    -16.75009185504679700000	     10.66551530911821600000	      0.00000000000001129612	      0.00000000000004476090	    -11.85788664269366400000	     -4.26361257083618830000	      8.85225492374613760000	     -7.64391267340486100000	    -29.22627074879883200000	      8.66669981076067410000	    135.63944738881509000000	    117.03991922199855000000	      0.00000000000002869276	      0.00000000000002966723	    -34.84993243937351100000	    -21.09371509068488500000	      4.52643348877620970000	    117.97164146492013000000	     99.25717609784818800000	      0.00000000000000027159	     -0.00000000000001009640
      2.24690000000000010000	     -4.90179660748050330000	      1.86526373014607820000	     -3.01860859586176880000	      0.90253927711728987000	      1.08332497149116080000	     -0.30091623305162407000	    -11.69987821526345500000	      2.55168860015155020000	     -0.05286707318928596900	    -41.43679286733806300000	     -2.72656763334038610000	      0.00000000000006601194	     -0.00000000000008592168	     31.38853613224434000000	      3.98855249486868900000	      2.67896363287010300000	    -16.76867385234821500000	     10.69850797708505800000	      0.00000000000001128511	      0.00000000000004497704	    -11.89791495921447900000	     -4.27445592065547420000	      8.75601367495430690000	     -7.74374052903061210000	    -29.22088803871066200000	      8.72633163789273780000	    135.56984315970163000000	    117.00940112522238000000	      0.00000000000002881972	      0.00000000000002979973	    -34.76431780240808000000	    -21.11697337666071000000	      4.53873757808452360000	    117.98678327587518000000	     99.32113294199781700000	      0.00000000000000025542	     -0.00000000000001017902
      2.24790000000000000000	     -4.86505000858337500000	      1.86408528330882350000	     -2.95813253467754360000	      0.90259629020020282000	      1.08310919812733640000	     -0.30094356463347360000	    -11.60071501368148000000	      2.56652730360011510000	     -0.06710974192555885200	    -41.94689658853278000000	     -2.63375752380148990000	      0.00000000000006641886	     -0.00000000000008631347	     31.34388074399057400000	      4.01619167841294900000	      2.55470168113055160000	    -16.79576897950077100000	     10.72812101260043600000	      0.00000000000001127431	      0.00000000000004519351	    -11.93925657803214700000	     -4.28629134963249840000	      8.65928321741969850000	     -7.84392289491764140000	    -29.21437475554703100000	      8.78384697701817350000	    135.49591830248744000000	    116.98032115840091000000	      0.00000000000002894729	      0.00000000000002993166	    -34.67647723996096000000	    -21.14140197610804300000	      4.55193398690901320000	    118.00071319569554000000	     99.38466826895120200000	      0.00000000000000023892	     -0.00000000000001026106
      2.24889999999999990000	     -4.82715786228312550000	      1.86349532410808870000	     -2.89834304162704150000	      0.90265187245310652000	      1.08288651673509410000	     -0.30096885651758898000	    -11.50011822947477700000	      2.58112411592188720000	     -0.08028798085092896100	    -42.45995306499775500000	     -2.54419392461854250000	      0.00000000000006682479	     -0.00000000000008670504	     31.29853099011041500000	      4.04417531451502300000	      2.42950720463128000000	    -16.83104188732703600000	     10.75423977847693600000	      0.00000000000001126256	      0.00000000000004540959	    -11.98188273939915200000	     -4.29911370698327300000	      8.56213340952613500000	     -7.94445741309600260000	    -29.20671469604366200000	      8.83923872187933670000	    135.41773280969244000000	    116.95268600821259000000	      0.00000000000002907557	      0.00000000000003006478	    -34.58646792770370800000	    -21.16701068122283400000	      4.56600674774423960000	    118.01344942993728000000	     99.44763441629677900000	      0.00000000000000022261	     -0.00000000000001034244
      2.24989999999999980000	     -4.78811559770616760000	      1.86347888293730150000	     -2.83929181635161050000	      0.90270615706893431000	      1.08265695210709860000	     -0.30099196574400838000	    -11.39815041983961000000	      2.59549299142298650000	     -0.09240373672419401100	    -42.97581270706175600000	     -2.45789699138362220000	      0.00000000000006722941	     -0.00000000000008709566	     31.25234606066773000000	      4.07245925097253100000	      2.30370877206796010000	    -16.87416921971844600000	     10.77654800293565900000	      0.00000000000001125007	      0.00000000000004562557	    -12.02577699286744200000	     -4.31292419169382950000	      8.46462848653871090000	     -8.04533823813665980000	    -29.19789298716513300000	      8.89250087103604690000	    135.33534876153144000000	    116.92649495779601000000	      0.00000000000002920308	      0.00000000000003020114	    -34.49434355216806100000	    -21.19381018155332100000	      4.58093890342553680000	    118.02501256568313000000	     99.50987914101506200000	      0.00000000000000020662	     -0.00000000000001042363
